<?xml version="1.0" standalone="no"?><!DOCTYPE svg PUBLIC "-//W3C//DTD SVG 1.1//EN" "http://www.w3.org/Graphics/SVG/1.1/DTD/svg11.dtd"><svg t="1660791532147" class="icon" viewBox="0 0 1024 1024" version="1.1" xmlns="http://www.w3.org/2000/svg" p-id="19479" xmlns:xlink="http://www.w3.org/1999/xlink" width="200" height="200"><defs><style type="text/css">@font-face { font-family: feedback-iconfont; src: url("//at.alicdn.com/t/font_1031158_u69w8yhxdu.woff2?t=1630033759944") format("woff2"), url("//at.alicdn.com/t/font_1031158_u69w8yhxdu.woff?t=1630033759944") format("woff"), url("//at.alicdn.com/t/font_1031158_u69w8yhxdu.ttf?t=1630033759944") format("truetype"); }
</style></defs><path d="M798.599529 885.639529H228.894118a1.867294 1.867294 0 0 1-1.867294-1.867294v-64.150588c0-1.084235 0.843294-1.927529 1.867294-1.927529h569.705411c1.024 0 1.807059 0.843294 1.807059 1.927529v64.150588a1.867294 1.867294 0 0 1-1.807059 1.867294zM886.844235 327.740235a46.802824 46.802824 0 0 0-46.260706 47.344941c0 6.866824 1.505882 13.312 4.096 19.215059L678.851765 469.775059l-138.541177-243.350588a47.344941 47.344941 0 0 0 23.070118-40.719059 46.802824 46.802824 0 0 0-46.260706-47.344941 46.802824 46.802824 0 0 0-46.200471 47.344941c0 16.865882 8.734118 31.683765 21.805177 40.05647L343.883294 469.775059 178.115765 394.300235a48.128 48.128 0 0 0 4.035764-19.215059 46.802824 46.802824 0 0 0-46.20047-47.344941 46.802824 46.802824 0 0 0-46.200471 47.344941c0 26.142118 20.660706 47.344941 46.200471 47.344942 3.734588 0 7.348706-0.602353 10.842353-1.445647l81.558588 344.726588h566.031059l81.558588-344.726588a44.875294 44.875294 0 0 0 10.842353 1.445647 46.802824 46.802824 0 0 0 46.200471-47.344942 46.802824 46.802824 0 0 0-46.200471-47.344941z" fill="#FFC83B" p-id="19480"></path></svg>