<?xml version="1.0" standalone="no"?><!DOCTYPE svg PUBLIC "-//W3C//DTD SVG 1.1//EN" "http://www.w3.org/Graphics/SVG/1.1/DTD/svg11.dtd"><svg t="1660713358211" class="icon" viewBox="0 0 1024 1024" version="1.1" xmlns="http://www.w3.org/2000/svg" p-id="19112" xmlns:xlink="http://www.w3.org/1999/xlink" width="200" height="200"><defs><style type="text/css">@font-face { font-family: feedback-iconfont; src: url("//at.alicdn.com/t/font_1031158_u69w8yhxdu.woff2?t=1630033759944") format("woff2"), url("//at.alicdn.com/t/font_1031158_u69w8yhxdu.woff?t=1630033759944") format("woff"), url("//at.alicdn.com/t/font_1031158_u69w8yhxdu.ttf?t=1630033759944") format("truetype"); }
</style></defs><path d="M841.344 42.24a112 112 0 0 1 111.616 102.784l0.384 9.216v166.72a48 48 0 0 1-95.552 6.528l-0.448-6.528V154.24a16 16 0 0 0-12.352-15.552l-3.648-0.448H133.696a16 16 0 0 0-15.616 12.352l-0.384 3.648v715.52a16 16 0 0 0 12.288 15.552l3.712 0.448h269.12a48 48 0 0 1 6.528 95.552l-6.528 0.448H133.696a112 112 0 0 1-111.68-102.784L21.76 869.76V154.24A112 112 0 0 1 124.48 42.624L133.696 42.24h707.648zM561.6 526.08a230.4 230.4 0 0 1 350.72 296.448l78.72 78.784a38.4 38.4 0 0 1-54.272 54.336l-78.72-78.784a230.464 230.464 0 0 1-296.448-350.72z m271.488 54.4a153.6 153.6 0 1 0-217.216 217.152 153.6 153.6 0 0 0 217.216-217.216z m-440.384-32.512a41.6 41.6 0 0 1 0 83.2H212.032a41.6 41.6 0 0 1 0-83.2h180.672z m0-155.136a41.6 41.6 0 0 1 0 83.2H212.032a41.6 41.6 0 0 1 0-83.2h180.672z m228.288-155.072a41.6 41.6 0 0 1 0 83.2h-408.96a41.6 41.6 0 0 1 0-83.2h408.96z" fill="#ffffff" p-id="19113"></path></svg>