<?xml version="1.0" standalone="no"?><!DOCTYPE svg PUBLIC "-//W3C//DTD SVG 1.1//EN" "http://www.w3.org/Graphics/SVG/1.1/DTD/svg11.dtd"><svg style="fill:#fff" t="1660702836423" class="icon" viewBox="0 0 1024 1024" version="1.1" xmlns="http://www.w3.org/2000/svg" p-id="18977" xmlns:xlink="http://www.w3.org/1999/xlink" width="200" height="200"><defs><style type="text/css">@font-face { font-family: feedback-iconfont; src: url("//at.alicdn.com/t/font_1031158_u69w8yhxdu.woff2?t=1630033759944") format("woff2"), url("//at.alicdn.com/t/font_1031158_u69w8yhxdu.woff?t=1630033759944") format("woff"), url("//at.alicdn.com/t/font_1031158_u69w8yhxdu.ttf?t=1630033759944") format("truetype"); }
</style></defs><path d="M890.368 188.2624c-0.512-20.3776-16.0768-33.2288-38.2976-32.768-22.272 0.512-33.7408 14.08-37.376 34.4576-1.9456 10.5984-1.3312 21.6576-1.4336 32.4608-0.1536 18.5344 0 37.0176 0 55.552-2.9184 1.28-5.8368 2.56-8.704 3.9424-9.728-9.3696-19.3024-18.8928-29.184-28.0064-89.2928-82.3296-195.2256-112.9472-313.856-94.72-167.424 25.7024-291.5328 165.12-306.1248 339.2-13.6704 163.328 91.648 321.024 249.856 374.1184 159.8976 53.76 337.92-8.7552 427.8784-150.3744 5.7856-9.1136 11.776-18.432 15.36-28.5696 6.8096-19.5584 3.3792-37.7856-15.9744-48.2304-18.6368-10.0864-36.3008-6.0416-49.5104 11.0592-6.656 8.5504-11.6224 18.3296-17.8176 27.2384-55.808 80.5376-132.4032 124.416-230.4 129.1776-131.328 6.4-251.648-78.7456-289.8944-204.288a291.9424 291.9424 0 0 1 132.0448-337.408c113.6128-66.2528 259.4816-47.2064 351.4368 46.1824 6.7584 6.8096 11.264 15.872 22.2208 31.5392-35.8912 0-63.5392-1.4848-90.9824 0.4096-25.2928 1.7408-38.7072 16.8448-38.5024 37.9904 0.2048 20.5824 14.5408 37.5808 38.912 38.1952 63.5904 1.536 127.232 1.024 190.8224 0.3072 20.992-0.2048 38.2976-12.1856 38.912-32.9216 2.0992-68.096 2.304-136.3968 0.5632-204.544z" p-id="18978"></path></svg>