<?xml version="1.0" standalone="no"?><!DOCTYPE svg PUBLIC "-//W3C//DTD SVG 1.1//EN" "http://www.w3.org/Graphics/SVG/1.1/DTD/svg11.dtd"><svg t="1660723380417" class="icon" viewBox="0 0 1109 1024" version="1.1" xmlns="http://www.w3.org/2000/svg" p-id="19279" xmlns:xlink="http://www.w3.org/1999/xlink" width="216.6015625" height="200"><defs><style type="text/css">@font-face { font-family: feedback-iconfont; src: url("//at.alicdn.com/t/font_1031158_u69w8yhxdu.woff2?t=1630033759944") format("woff2"), url("//at.alicdn.com/t/font_1031158_u69w8yhxdu.woff?t=1630033759944") format("woff"), url("//at.alicdn.com/t/font_1031158_u69w8yhxdu.ttf?t=1630033759944") format("truetype"); }
</style></defs><path d="M945.89166637 437.00000029V87.35000029a24.975 24.975 0 0 0-24.975-24.975H571.19166666a24.975 24.975 0 0 0-25.0499997 24.975v349.79999942c0 13.79999971 11.25 24.975 25.0499997 24.975h349.72499971A24.975 24.975 0 0 0 945.89166637 437.00000029z m-49.95-24.90000029H596.16666666V112.24999971h299.77499971v299.85000029zM509.01666696 561.95H159.29166637A24.975 24.975 0 0 0 134.31666637 586.99999971v349.80000029c0 13.79999971 11.17500029 24.975 24.975 24.975h349.72500059a24.975 24.975 0 0 0 25.0499997-24.975V586.925a24.975 24.975 0 0 0-25.0499997-24.975z m-24.975 349.80000029H184.26666637V611.9h299.77500059v299.85000029zM243.81666666 517.77500029a24.975 24.975 0 0 0 23.625-33.37500058c-2.54999971-7.35000029-60.3-179.47500029 172.8-268.04999971a24.975 24.975 0 0 0-17.70000029-46.72500029c-177.37499971 67.34999971-211.5 181.50000029-212.47499971 256.65000029l-53.1-50.4a24.975 24.975 0 1 0-34.4999997 36.225l104.2499997 98.775a24.975 24.975 0 0 0 17.1 6.90000029zM1006.41666637 658.025l-104.24999971-99a24.975 24.975 0 0 0-41.625 23.4c1.72500029 8.25000029 39.97500029 204.525-196.2749997 294.22500029a24.975 24.975 0 1 0 17.69999941 46.8c187.27499971-71.1 225.60000029-205.27499971 230.55000029-285.75l59.4 56.39999942a24.975 24.975 0 0 0 34.49999971-36.225v0.15000029z" fill="#ffffff" p-id="19280"></path></svg>