<?xml version="1.0" standalone="no"?><!DOCTYPE svg PUBLIC "-//W3C//DTD SVG 1.1//EN" "http://www.w3.org/Graphics/SVG/1.1/DTD/svg11.dtd"><svg t="1636361259315" class="icon" viewBox="0 0 1024 1024" version="1.1" xmlns="http://www.w3.org/2000/svg" p-id="12462" xmlns:xlink="http://www.w3.org/1999/xlink" width="32" height="32"><defs><style type="text/css"></style></defs><path d="M766.167579 6.197895c30.935579 0 59.661474 15.090526 77.285053 40.151579l4.527157 7.006315 130.479158 225.549474c6.682947 11.533474 10.778947 24.252632 12.234106 37.402948l0.538947 9.916631v555.600842c0 49.421474-37.995789 90.004211-86.393263 94.154105l-8.138105 0.323369H99.651368c-49.421474 0-90.004211-37.941895-94.154105-86.339369l-0.323368-8.138105v-23.282526a38.912 38.912 0 0 1 77.446737-5.281684l0.377263 5.281684v23.282526c0 7.868632 5.497263 14.551579 12.826947 16.222316l3.826526 0.431158h797.049264a16.707368 16.707368 0 0 0 16.222315-12.826947l0.431158-3.826527V376.616421H82.997895v17.677474a38.912 38.912 0 0 1-77.446737 5.281684l-0.377263-5.281684V324.608c0-11.856842 2.209684-23.605895 6.575158-34.600421l3.610947-8.084211 113.340632-223.878736A94.531368 94.531368 0 0 1 204.853895 6.575158l8.192-0.377263h553.121684zM136.192 713.674105a38.912 38.912 0 0 1 5.281684 77.446737l-5.281684 0.377263H44.032a38.912 38.912 0 0 1-5.227789-77.500631l5.281684-0.323369h92.106105z m538.947368-224.309894l4.850527 4.149894 100.082526 102.022737c13.312 13.527579 14.713263 34.438737 4.149895 49.529263l-3.988211 4.796632-100.082526 103.31621a38.912 38.912 0 0 1-59.930947-49.313684l4.042105-4.850526 31.690105-32.821895H498.202947a38.912 38.912 0 0 1-5.281684-77.446737l5.281684-0.377263h165.834106l-39.612632-40.367158a38.912 38.912 0 0 1-3.610947-50.229895l4.149894-4.796631a38.912 38.912 0 0 1 50.229895-3.610947z m-445.278315 94.477473a38.912 38.912 0 0 1 5.281684 77.500632l-5.281684 0.323368H44.085895A38.912 38.912 0 0 1 38.804211 584.218947l5.281684-0.377263h185.775158z m140.880842-131.503158a38.912 38.912 0 0 1 5.281684 77.500632l-5.281684 0.323368H44.085895A38.912 38.912 0 0 1 38.804211 452.715789l5.281684-0.377263h326.656z m395.425684-368.316631H213.045895a16.707368 16.707368 0 0 0-12.880842 6.03621l-1.994106 3.125895-104.178526 205.608421H900.042105l-119.484631-206.416842a16.707368 16.707368 0 0 0-10.940632-7.976421l-3.503158-0.377263z" p-id="12463"></path></svg>